<svg width="888" height="694" viewBox="0 0 888 694" fill="none" xmlns="http://www.w3.org/2000/svg">
<path d="M-472.405 -179.422C-663.205 -19.1685 -513.568 147.78 -414.9 211.222C-227.076 325.076 -242.406 177.786 -47.7795 203.408C146.847 229.029 9.06745 106.255 38.8235 -5.43169C68.5795 -117.119 255.932 58.3735 305.682 -148.318C355.432 -355.009 24.8874 -562.912 19.5099 -263.073C14.1324 36.7658 -233.904 -379.738 -472.405 -179.422Z" stroke="#167AC6" stroke-opacity="0.15" stroke-width="2"/>
<path d="M-392.716 -160.699C-539.621 -37.1963 -424.555 91.2927 -348.659 140.099C-204.182 227.682 -215.905 114.265 -66.1484 133.899C83.6082 153.533 -22.3551 59.0558 0.598255 -26.9668C23.5516 -112.989 167.636 22.0604 206.023 -137.133C244.409 -296.326 -9.84886 -456.264 -14.136 -225.361C-18.423 5.54092 -209.086 -315.077 -392.716 -160.699Z" stroke="#167AC6" stroke-opacity="0.15" stroke-width="2"/>
<path d="M-546.307 -196.557C-778.011 -1.83093 -596.44 200.857 -476.692 277.861C-248.738 416.045 -267.274 237.166 -31.0169 268.187C205.24 299.208 38.0416 150.165 74.2199 14.504C110.398 -121.157 337.75 91.8891 398.248 -159.167C458.746 -410.223 57.5788 -662.562 50.9018 -298.398C44.2248 65.7662 -256.676 -439.965 -546.307 -196.557Z" stroke="#167AC6" stroke-opacity="0.15" stroke-width="2"/>
<path d="M-608.243 -211.194C-873.991 11.9496 -665.503 244.502 -528.041 332.885C-266.372 491.5 -287.763 286.36 -16.6383 322.093C254.486 357.825 62.5264 186.799 103.949 31.2557C145.372 -124.287 406.4 120.174 475.652 -167.681C544.904 -455.535 84.3975 -745.171 76.9811 -327.576C69.5646 90.0196 -276.058 -490.123 -608.243 -211.194Z" stroke="#167AC6" stroke-opacity="0.15" stroke-width="2"/>
<path d="M-697.005 -231.624C-1012.01 33.1864 -765.256 308.714 -602.501 413.377C-292.677 601.193 -317.827 357.994 3.3115 400.108C324.45 442.223 97.2143 239.627 146.427 55.1721C195.64 -129.283 504.626 160.316 586.927 -181.036C669.228 -522.389 123.984 -865.364 114.813 -370.244C105.641 124.876 -303.244 -562.638 -697.005 -231.624Z" stroke="#167AC6" stroke-opacity="0.15" stroke-width="2"/>
<path d="M-800.625 -255.348C-1173.25 58.3246 -881.888 384.064 -689.628 507.724C-323.626 729.612 -353.086 441.883 26.4491 491.362C405.984 540.841 137.617 301.375 195.987 83.0712C254.358 -135.233 619.258 207.087 716.911 -196.896C814.563 -600.88 170.467 -1006.1 159.085 -420.254C147.703 165.591 -334.842 -647.44 -800.625 -255.348Z" stroke="#167AC6" stroke-opacity="0.15" stroke-width="2"/>
</svg>
