<svg width="1544" height="694" viewBox="0 0 1544 694" fill="none" xmlns="http://www.w3.org/2000/svg">
<path d="M980.589 986.156C866.179 1207.51 1068.55 1303.99 1184.04 1324.56C1401.21 1357.34 1330.37 1227.3 1519.86 1176.03C1709.35 1124.76 1534.93 1064.48 1519.4 949.946C1503.87 835.412 1744.34 925.261 1710.69 715.347C1677.04 505.432 1291.94 440.789 1402.4 719.593C1512.85 998.397 1123.6 709.467 980.589 986.156Z" stroke="#167AC6" stroke-opacity="0.15" stroke-width="2"/>
<path d="M1061.34 972.76C973.299 1143.29 1128.96 1217.59 1217.79 1233.42C1384.85 1258.64 1330.37 1158.47 1476.15 1118.95C1621.92 1079.42 1487.76 1033.01 1475.83 944.784C1463.9 856.555 1648.87 925.734 1623.01 764.031C1597.16 602.329 1300.93 552.59 1385.86 767.349C1470.79 982.109 1171.4 759.591 1061.34 972.76Z" stroke="#167AC6" stroke-opacity="0.15" stroke-width="2"/>
<path d="M905.783 998.787C766.891 1267.7 1012.49 1384.88 1152.66 1409.85C1416.24 1449.64 1330.27 1291.68 1560.26 1229.36C1790.26 1167.05 1578.57 1093.85 1559.74 954.719C1540.91 815.585 1832.75 924.697 1791.95 669.699C1751.14 414.701 1283.75 336.232 1417.77 674.905C1551.79 1013.58 1079.4 662.646 905.783 998.787Z" stroke="#167AC6" stroke-opacity="0.15" stroke-width="2"/>
<path d="M842.986 1009.12C683.613 1317.37 965.553 1451.74 1126.45 1480.4C1429.01 1526.07 1330.3 1344.97 1594.29 1273.58C1858.27 1202.19 1615.27 1118.24 1593.63 958.736C1571.98 799.233 1907 924.376 1860.11 632.046C1813.22 339.715 1276.7 249.665 1430.61 637.936C1584.51 1026.21 1042.2 623.814 842.986 1009.12Z" stroke="#167AC6" stroke-opacity="0.15" stroke-width="2"/>
<path d="M753.201 1024.43C564.403 1390.1 898.207 1549.41 1088.71 1583.35C1446.96 1637.43 1330.13 1422.66 1642.73 1337.91C1955.33 1253.16 1667.62 1153.64 1642.04 964.458C1616.46 775.273 2013.11 923.615 1957.67 576.886C1902.23 230.157 1266.97 123.496 1449.1 583.994C1631.23 1044.49 989.199 567.352 753.201 1024.43Z" stroke="#167AC6" stroke-opacity="0.15" stroke-width="2"/>
<path d="M648.433 1042.42C425.266 1475.36 819.568 1663.85 1044.61 1703.97C1467.83 1767.87 1329.88 1513.65 1699.21 1413.22C2068.55 1312.79 1728.68 1195.08 1698.52 971.13C1668.36 747.179 2136.91 922.656 2071.53 512.212C2006.15 101.768 1255.7 -24.2864 1470.71 520.795C1685.72 1065.88 927.392 501.248 648.433 1042.42Z" stroke="#167AC6" stroke-opacity="0.15" stroke-width="2"/>
</svg>
